<?xml version="1.0" encoding="UTF-8" standalone="no"?>
<!-- Generator: Adobe Illustrator 26.1.0, SVG Export Plug-In . SVG Version: 6.00 Build 0)  -->

<svg
   version="1.1"
   id="svg5"
   inkscape:version="1.1.1 (3bf5ae0d25, 2021-09-20)"
   sodipodi:docname="template.svg"
   x="0px"
   y="0px"
   viewBox="0 0 2267.7 2267.7164"
   xml:space="preserve"
   width="599.99561mm"
   height="600mm"
   xmlns:inkscape="http://www.inkscape.org/namespaces/inkscape"
   xmlns:sodipodi="http://sodipodi.sourceforge.net/DTD/sodipodi-0.dtd"
   xmlns="http://www.w3.org/2000/svg"
   xmlns:svg="http://www.w3.org/2000/svg"><defs
   id="defs398" />
<style
   type="text/css"
   id="style2">
	.st0{fill:none;stroke:#00FF00;stroke-width:7.380471e-03;stroke-miterlimit:10;}
	.st1{font-family:'Lato-Light';}
	.st2{font-size:10.0001px;}
	.st3{fill:#1D1D1B;}
	.st4{font-size:6.9999px;}
	
		.st5{fill:none;stroke:#000000;stroke-width:0.5;stroke-linecap:round;stroke-linejoin:round;stroke-miterlimit:10;stroke-dasharray:2.3998,7.1994;}
	.st6{stroke:#000000;stroke-width:0.4799;stroke-linejoin:round;stroke-miterlimit:10;}
	.st7{stroke:#000000;stroke-width:0.4799;stroke-linejoin:bevel;stroke-miterlimit:10;}
	.st8{fill-rule:evenodd;clip-rule:evenodd;}
	.st9{fill:none;stroke:#000000;}
	.st10{fill:none;stroke:#D9D9D9;stroke-miterlimit:10;}
	.st11{font-family:'Lato-Regular';}
	.st12{font-size:7px;}
</style>
<sodipodi:namedview
   bordercolor="#666666"
   borderopacity="1.0"
   id="namedview7"
   inkscape:current-layer="svg5"
   inkscape:cx="490.62499"
   inkscape:cy="416.79687"
   inkscape:document-units="mm"
   inkscape:pagecheckerboard="0"
   inkscape:pageopacity="0.0"
   inkscape:pageshadow="2"
   inkscape:window-height="1369"
   inkscape:window-maximized="1"
   inkscape:window-width="2560"
   inkscape:window-x="1912"
   inkscape:window-y="-8"
   inkscape:zoom="1.28"
   pagecolor="#ffffff"
   showgrid="false"
   units="mm">
	</sodipodi:namedview>















































<text
   class="st1 st4"
   id="text37"
   x="521.36383"
   y="135.67903"><tspan
     style="font-style:normal;font-variant:normal;font-weight:300;font-stretch:normal;font-family:'Work Sans';-inkscape-font-specification:'Work Sans Light';text-align:center;text-anchor:middle"
     id="tspan3343">%SERIAL0%</tspan></text>
































































































































































































































































































<text
   class="st1 st4"
   id="text10205"
   x="521.36383"
   y="763.08063"><tspan
     style="font-style:normal;font-variant:normal;font-weight:300;font-stretch:normal;font-family:'Work Sans';-inkscape-font-specification:'Work Sans Light';text-align:center;text-anchor:middle"
     id="tspan10203">%SERIAL2%</tspan></text><text
   class="st1 st4"
   id="text10265"
   x="521.36383"
   y="1076.7814"><tspan
     style="font-style:normal;font-variant:normal;font-weight:300;font-stretch:normal;font-family:'Work Sans';-inkscape-font-specification:'Work Sans Light';text-align:center;text-anchor:middle"
     id="tspan10263">%SERIAL3%</tspan></text><text
   class="st1 st4"
   id="text10325"
   x="521.36383"
   y="1390.4822"><tspan
     style="font-style:normal;font-variant:normal;font-weight:300;font-stretch:normal;font-family:'Work Sans';-inkscape-font-specification:'Work Sans Light';text-align:center;text-anchor:middle"
     id="tspan10323">%SERIAL4%</tspan></text><text
   class="st1 st4"
   id="text10385"
   x="521.36383"
   y="1704.183"><tspan
     style="font-style:normal;font-variant:normal;font-weight:300;font-stretch:normal;font-family:'Work Sans';-inkscape-font-specification:'Work Sans Light';text-align:center;text-anchor:middle"
     id="tspan10383">%SERIAL5%</tspan></text><text
   class="st1 st4"
   id="text10445"
   x="521.36383"
   y="2017.8837"><tspan
     style="font-style:normal;font-variant:normal;font-weight:300;font-stretch:normal;font-family:'Work Sans';-inkscape-font-specification:'Work Sans Light';text-align:center;text-anchor:middle"
     id="tspan10443">%SERIAL6%</tspan></text><path
   style="fill:none;stroke:#ffff00;stroke-width:0.03779528;stroke-linecap:butt;stroke-linejoin:miter;stroke-opacity:1;stroke-miterlimit:7;stroke-dasharray:none"
   d="m 453.71701,6.063459 c 131.93607,0 131.93607,0 131.93607,0"
   id="path32356" /><text
   class="st1 st4"
   id="text8087"
   x="521.36383"
   y="449.37982"><tspan
     style="font-style:normal;font-variant:normal;font-weight:300;font-stretch:normal;font-family:'Work Sans';-inkscape-font-specification:'Work Sans Light';text-align:center;text-anchor:middle"
     id="tspan8085">%SERIAL1%</tspan></text><g
   id="g16760"><line
     id="line211"
     class="st5"
     x1="476.96759"
     y1="163.18582"
     x2="565.86761"
     y2="163.18582" /><text
     class="st1 st4"
     id="text40"
     x="463.07932"
     y="176.52983"><tspan
       style="font-style:normal;font-variant:normal;font-weight:normal;font-stretch:normal;font-family:'Work Sans';-inkscape-font-specification:'Work Sans'"
       id="tspan39167">lorem ipsum | blabla | information</tspan></text><g
     id="g6313"
     transform="translate(-83.406108,43.785826)"><path
       id="path92"
       class="st6"
       d="m 604.4,163.9 v -2.1 c -1.9,0.3 -3.8,-0.6 -4.9,-2.2 -1,-1.6 -1,-3.7 0,-5.4 1.1,-1.6 3,-2.5 4.9,-2.2 v -2.1 c -2.7,-0.3 -5.3,1 -6.7,3.3 -1.4,2.3 -1.4,5.2 0,7.5 1.4,2.2 4,3.5 6.7,3.2 z" /><path
       id="path94"
       class="st7"
       d="m 616.4,163.9 c -2.7,0.3 -5.3,-1 -6.7,-3.3 -1.4,-2.3 -1.4,-5.2 0,-7.5 1.4,-2.3 4,-3.6 6.7,-3.3 v 2.1 c -2.6,-0.4 -5,1.3 -5.6,3.8 h 4.1 v 2.1 h -4.1 c 0.6,2.5 3,4.2 5.6,3.8 z" /><polygon
       id="polygon96"
       class="st6"
       points="623,188.2 631.3,188.2 631.3,186.2 623,186.2 "
       transform="translate(0,-24)" /><path
       id="path99"
       class="st8"
       d="m 626.6,153.9 h 1.7 v -0.5 h -1.7 z m -0.5,4.6 v 0.4 h -0.5 v -0.4 c -0.1,0 -0.1,-0.1 -0.1,-0.1 l -0.6,-6.6 h -0.4 v -0.3 h 0.3 c 0.1,-0.3 0.3,-0.5 0.6,-0.6 v -0.2 h 0.5 v 0.1 c 0.3,-0.1 0.5,-0.1 0.8,-0.1 v -0.1 h 1.3 v 0.1 c 0.3,0 0.5,0 0.7,0.1 0.2,0.1 0.4,0.2 0.6,0.4 0.1,-0.1 0.2,-0.2 0.3,-0.2 0.2,0 0.4,0.2 0.4,0.4 0,0.2 -0.2,0.4 -0.4,0.4 -0.1,0 -0.1,0 -0.2,0 v 0.5 h 0.6 v 1 h -0.7 l -0.4,4 c 0.4,0.1 0.6,0.4 0.6,0.8 0,0.5 -0.4,0.8 -0.8,0.8 -0.3,0 -0.6,-0.2 -0.7,-0.4 z m 2.7,-0.7 c 0.2,0 0.3,0.1 0.3,0.3 0,0.2 -0.1,0.3 -0.3,0.3 -0.2,0 -0.3,-0.1 -0.3,-0.3 0,-0.1 0.1,-0.3 0.3,-0.3 z m -0.8,0.5 v -0.1 c 0,-0.4 0.3,-0.8 0.7,-0.8 l 0.4,-4 v 0 -1 h 0.1 v -0.5 h -4 l 0.5,6.4 z m 0.8,-0.6 c 0.2,0 0.4,0.2 0.4,0.4 0,0.2 -0.2,0.4 -0.4,0.4 -0.2,0 -0.4,-0.2 -0.4,-0.4 -0.1,-0.2 0.1,-0.4 0.4,-0.4 z m 0.6,-5.1 v 0.5 h 0.4 v -0.5 z m -3.5,-1.4 v 0.4 h 3.3 c -0.1,-0.2 -0.3,-0.3 -0.5,-0.4 -0.2,-0.1 -0.4,-0.1 -0.7,-0.1 v 0.2 h -1.3 V 151 c -0.3,0.1 -0.6,0.1 -0.8,0.2 z m -0.5,0.4 v -0.3 c -0.1,0.1 -0.3,0.2 -0.3,0.3 z m 1.5,-0.5 h 0.9 v -0.2 h -0.9 z" /><polygon
       id="polygon101"
       class="st6"
       points="622.5,174.2 622.3,174.3 626.8,179.1 622.3,183.7 622.5,183.9 627,179.3 631.4,183.9 631.6,183.7 627.2,179.1 631.6,174.7 631.4,174.5 627,178.9 "
       transform="translate(0,-24)" /><path
       d="m 585.3,164.6 c -4.2,0 -7.6,-3.4 -7.6,-7.6 0,-4.2 3.4,-7.6 7.6,-7.6 4.2,0 7.6,3.4 7.6,7.6 0,4.2 -3.4,7.6 -7.6,7.6 z m 0,-14.2 c -3.6,0 -6.6,3 -6.6,6.6 0,3.6 3,6.6 6.6,6.6 3.6,0 6.6,-3 6.6,-6.6 0,-3.6 -2.9,-6.6 -6.6,-6.6 z"
       id="path47" /><path
       id="path3209"
       class="st9"
       d="m 585.3,151.3 v 7.4" /><path
       id="path3211"
       class="st9"
       d="m 591.3,158.7 h -12" /><path
       id="path4182"
       class="st9"
       d="m 589.7,160.4 h -8.8" /><path
       id="path4184"
       class="st9"
       d="m 587.3,162 h -4.1" /></g><text
     class="st1 st4"
     id="text53"
     x="512.71198"
     y="187.63263"><tspan
       style="font-style:normal;font-variant:normal;font-weight:600;font-stretch:normal;font-family:'Work Sans';-inkscape-font-specification:'Work Sans Semi-Bold'"
       id="tspan42427">IP 20</tspan></text><text
     class="st11 st12"
     id="text57"
     x="475.8255"
     y="146.93512"><tspan
       style="font-style:normal;font-variant:normal;font-weight:bold;font-stretch:normal;font-family:Gilroy;-inkscape-font-specification:'Gilroy Bold'"
       id="tspan25481">made with love and passion</tspan></text><text
     class="st11 st12"
     id="text59"
     x="502.3064"
     y="155.33513"><tspan
       style="font-style:normal;font-variant:normal;font-weight:bold;font-stretch:normal;font-family:Gilroy;-inkscape-font-specification:'Gilroy Bold'"
       id="tspan31095">in Germany</tspan></text><rect
     style="fill:none;stroke:#000000;stroke-width:0.377953"
     id="QR0"
     width="49.718445"
     height="49.718445"
     x="496.50464"
     y="56.347599"
     ry="14.144" /><text
     xml:space="preserve"
     style="font-style:normal;font-weight:normal;font-size:17.2411px;line-height:1.25;font-family:sans-serif;fill:#000000;fill-opacity:1;stroke:none;stroke-width:0.431028"
     x="464.28735"
     y="124.40166"
     id="text2016"><tspan
       sodipodi:role="line"
       id="tspan2014"
       x="464.28735"
       y="124.40166"
       style="font-style:normal;font-variant:normal;font-weight:800;font-stretch:normal;font-family:Gilroy;-inkscape-font-specification:'Gilroy Ultra-Bold';stroke-width:0.431028">company <tspan
   style="font-style:normal;font-variant:normal;font-weight:300;font-stretch:normal;font-family:Gilroy;-inkscape-font-specification:'Gilroy Light'"
   id="tspan4786">logo</tspan></tspan></text></g><g
   id="g16810"
   transform="translate(0,313.70078)"><line
     id="line16762"
     class="st5"
     x1="476.96759"
     y1="163.18582"
     x2="565.86761"
     y2="163.18582" /><text
     class="st1 st4"
     id="text16766"
     x="463.07932"
     y="176.52983"><tspan
       style="font-style:normal;font-variant:normal;font-weight:normal;font-stretch:normal;font-family:'Work Sans';-inkscape-font-specification:'Work Sans'"
       id="tspan16764">lorem ipsum | blabla | information</tspan></text><g
     id="g16788"
     transform="translate(-83.406108,43.785826)"><path
       id="path16768"
       class="st6"
       d="m 604.4,163.9 v -2.1 c -1.9,0.3 -3.8,-0.6 -4.9,-2.2 -1,-1.6 -1,-3.7 0,-5.4 1.1,-1.6 3,-2.5 4.9,-2.2 v -2.1 c -2.7,-0.3 -5.3,1 -6.7,3.3 -1.4,2.3 -1.4,5.2 0,7.5 1.4,2.2 4,3.5 6.7,3.2 z" /><path
       id="path16770"
       class="st7"
       d="m 616.4,163.9 c -2.7,0.3 -5.3,-1 -6.7,-3.3 -1.4,-2.3 -1.4,-5.2 0,-7.5 1.4,-2.3 4,-3.6 6.7,-3.3 v 2.1 c -2.6,-0.4 -5,1.3 -5.6,3.8 h 4.1 v 2.1 h -4.1 c 0.6,2.5 3,4.2 5.6,3.8 z" /><polygon
       id="polygon16772"
       class="st6"
       points="623,188.2 631.3,188.2 631.3,186.2 623,186.2 "
       transform="translate(0,-24)" /><path
       id="path16774"
       class="st8"
       d="m 626.6,153.9 h 1.7 v -0.5 h -1.7 z m -0.5,4.6 v 0.4 h -0.5 v -0.4 c -0.1,0 -0.1,-0.1 -0.1,-0.1 l -0.6,-6.6 h -0.4 v -0.3 h 0.3 c 0.1,-0.3 0.3,-0.5 0.6,-0.6 v -0.2 h 0.5 v 0.1 c 0.3,-0.1 0.5,-0.1 0.8,-0.1 v -0.1 h 1.3 v 0.1 c 0.3,0 0.5,0 0.7,0.1 0.2,0.1 0.4,0.2 0.6,0.4 0.1,-0.1 0.2,-0.2 0.3,-0.2 0.2,0 0.4,0.2 0.4,0.4 0,0.2 -0.2,0.4 -0.4,0.4 -0.1,0 -0.1,0 -0.2,0 v 0.5 h 0.6 v 1 h -0.7 l -0.4,4 c 0.4,0.1 0.6,0.4 0.6,0.8 0,0.5 -0.4,0.8 -0.8,0.8 -0.3,0 -0.6,-0.2 -0.7,-0.4 z m 2.7,-0.7 c 0.2,0 0.3,0.1 0.3,0.3 0,0.2 -0.1,0.3 -0.3,0.3 -0.2,0 -0.3,-0.1 -0.3,-0.3 0,-0.1 0.1,-0.3 0.3,-0.3 z m -0.8,0.5 v -0.1 c 0,-0.4 0.3,-0.8 0.7,-0.8 l 0.4,-4 v 0 -1 h 0.1 v -0.5 h -4 l 0.5,6.4 z m 0.8,-0.6 c 0.2,0 0.4,0.2 0.4,0.4 0,0.2 -0.2,0.4 -0.4,0.4 -0.2,0 -0.4,-0.2 -0.4,-0.4 -0.1,-0.2 0.1,-0.4 0.4,-0.4 z m 0.6,-5.1 v 0.5 h 0.4 v -0.5 z m -3.5,-1.4 v 0.4 h 3.3 c -0.1,-0.2 -0.3,-0.3 -0.5,-0.4 -0.2,-0.1 -0.4,-0.1 -0.7,-0.1 v 0.2 h -1.3 V 151 c -0.3,0.1 -0.6,0.1 -0.8,0.2 z m -0.5,0.4 v -0.3 c -0.1,0.1 -0.3,0.2 -0.3,0.3 z m 1.5,-0.5 h 0.9 v -0.2 h -0.9 z" /><polygon
       id="polygon16776"
       class="st6"
       points="627.2,179.1 631.6,174.7 631.4,174.5 627,178.9 622.5,174.2 622.3,174.3 626.8,179.1 622.3,183.7 622.5,183.9 627,179.3 631.4,183.9 631.6,183.7 "
       transform="translate(0,-24)" /><path
       d="m 585.3,164.6 c -4.2,0 -7.6,-3.4 -7.6,-7.6 0,-4.2 3.4,-7.6 7.6,-7.6 4.2,0 7.6,3.4 7.6,7.6 0,4.2 -3.4,7.6 -7.6,7.6 z m 0,-14.2 c -3.6,0 -6.6,3 -6.6,6.6 0,3.6 3,6.6 6.6,6.6 3.6,0 6.6,-3 6.6,-6.6 0,-3.6 -2.9,-6.6 -6.6,-6.6 z"
       id="path16778" /><path
       id="path16780"
       class="st9"
       d="m 585.3,151.3 v 7.4" /><path
       id="path16782"
       class="st9"
       d="m 591.3,158.7 h -12" /><path
       id="path16784"
       class="st9"
       d="m 589.7,160.4 h -8.8" /><path
       id="path16786"
       class="st9"
       d="m 587.3,162 h -4.1" /></g><text
     class="st1 st4"
     id="text16792"
     x="512.71198"
     y="187.63263"><tspan
       style="font-style:normal;font-variant:normal;font-weight:600;font-stretch:normal;font-family:'Work Sans';-inkscape-font-specification:'Work Sans Semi-Bold'"
       id="tspan16790">IP 20</tspan></text><text
     class="st11 st12"
     id="text16796"
     x="475.8255"
     y="146.93512"><tspan
       style="font-style:normal;font-variant:normal;font-weight:bold;font-stretch:normal;font-family:Gilroy;-inkscape-font-specification:'Gilroy Bold'"
       id="tspan16794">made with love and passion</tspan></text><text
     class="st11 st12"
     id="text16800"
     x="502.3064"
     y="155.33513"><tspan
       style="font-style:normal;font-variant:normal;font-weight:bold;font-stretch:normal;font-family:Gilroy;-inkscape-font-specification:'Gilroy Bold'"
       id="tspan16798">in Germany</tspan></text><rect
     style="fill:none;stroke:#000000;stroke-width:0.377953"
     id="rect16802"
     width="49.718445"
     height="49.718445"
     x="496.50464"
     y="56.347599"
     ry="14.144" /><text
     xml:space="preserve"
     style="font-style:normal;font-weight:normal;font-size:17.2411px;line-height:1.25;font-family:sans-serif;fill:#000000;fill-opacity:1;stroke:none;stroke-width:0.431028"
     x="464.28735"
     y="124.40166"
     id="text16808"><tspan
       sodipodi:role="line"
       id="tspan16806"
       x="464.28735"
       y="124.40166"
       style="font-style:normal;font-variant:normal;font-weight:800;font-stretch:normal;font-family:Gilroy;-inkscape-font-specification:'Gilroy Ultra-Bold';stroke-width:0.431028">company <tspan
   style="font-style:normal;font-variant:normal;font-weight:300;font-stretch:normal;font-family:Gilroy;-inkscape-font-specification:'Gilroy Light'"
   id="tspan16804">logo</tspan></tspan></text></g><g
   id="g17369"
   transform="translate(0,627.40157)"><line
     id="line17321"
     class="st5"
     x1="476.96759"
     y1="163.18582"
     x2="565.86761"
     y2="163.18582" /><text
     class="st1 st4"
     id="text17325"
     x="463.07932"
     y="176.52983"><tspan
       style="font-style:normal;font-variant:normal;font-weight:normal;font-stretch:normal;font-family:'Work Sans';-inkscape-font-specification:'Work Sans'"
       id="tspan17323">lorem ipsum | blabla | information</tspan></text><g
     id="g17347"
     transform="translate(-83.406108,43.785826)"><path
       id="path17327"
       class="st6"
       d="m 604.4,163.9 v -2.1 c -1.9,0.3 -3.8,-0.6 -4.9,-2.2 -1,-1.6 -1,-3.7 0,-5.4 1.1,-1.6 3,-2.5 4.9,-2.2 v -2.1 c -2.7,-0.3 -5.3,1 -6.7,3.3 -1.4,2.3 -1.4,5.2 0,7.5 1.4,2.2 4,3.5 6.7,3.2 z" /><path
       id="path17329"
       class="st7"
       d="m 616.4,163.9 c -2.7,0.3 -5.3,-1 -6.7,-3.3 -1.4,-2.3 -1.4,-5.2 0,-7.5 1.4,-2.3 4,-3.6 6.7,-3.3 v 2.1 c -2.6,-0.4 -5,1.3 -5.6,3.8 h 4.1 v 2.1 h -4.1 c 0.6,2.5 3,4.2 5.6,3.8 z" /><polygon
       id="polygon17331"
       class="st6"
       points="631.3,188.2 631.3,186.2 623,186.2 623,188.2 "
       transform="translate(0,-24)" /><path
       id="path17333"
       class="st8"
       d="m 626.6,153.9 h 1.7 v -0.5 h -1.7 z m -0.5,4.6 v 0.4 h -0.5 v -0.4 c -0.1,0 -0.1,-0.1 -0.1,-0.1 l -0.6,-6.6 h -0.4 v -0.3 h 0.3 c 0.1,-0.3 0.3,-0.5 0.6,-0.6 v -0.2 h 0.5 v 0.1 c 0.3,-0.1 0.5,-0.1 0.8,-0.1 v -0.1 h 1.3 v 0.1 c 0.3,0 0.5,0 0.7,0.1 0.2,0.1 0.4,0.2 0.6,0.4 0.1,-0.1 0.2,-0.2 0.3,-0.2 0.2,0 0.4,0.2 0.4,0.4 0,0.2 -0.2,0.4 -0.4,0.4 -0.1,0 -0.1,0 -0.2,0 v 0.5 h 0.6 v 1 h -0.7 l -0.4,4 c 0.4,0.1 0.6,0.4 0.6,0.8 0,0.5 -0.4,0.8 -0.8,0.8 -0.3,0 -0.6,-0.2 -0.7,-0.4 z m 2.7,-0.7 c 0.2,0 0.3,0.1 0.3,0.3 0,0.2 -0.1,0.3 -0.3,0.3 -0.2,0 -0.3,-0.1 -0.3,-0.3 0,-0.1 0.1,-0.3 0.3,-0.3 z m -0.8,0.5 v -0.1 c 0,-0.4 0.3,-0.8 0.7,-0.8 l 0.4,-4 v 0 -1 h 0.1 v -0.5 h -4 l 0.5,6.4 z m 0.8,-0.6 c 0.2,0 0.4,0.2 0.4,0.4 0,0.2 -0.2,0.4 -0.4,0.4 -0.2,0 -0.4,-0.2 -0.4,-0.4 -0.1,-0.2 0.1,-0.4 0.4,-0.4 z m 0.6,-5.1 v 0.5 h 0.4 v -0.5 z m -3.5,-1.4 v 0.4 h 3.3 c -0.1,-0.2 -0.3,-0.3 -0.5,-0.4 -0.2,-0.1 -0.4,-0.1 -0.7,-0.1 v 0.2 h -1.3 V 151 c -0.3,0.1 -0.6,0.1 -0.8,0.2 z m -0.5,0.4 v -0.3 c -0.1,0.1 -0.3,0.2 -0.3,0.3 z m 1.5,-0.5 h 0.9 v -0.2 h -0.9 z" /><polygon
       id="polygon17335"
       class="st6"
       points="631.6,174.7 631.4,174.5 627,178.9 622.5,174.2 622.3,174.3 626.8,179.1 622.3,183.7 622.5,183.9 627,179.3 631.4,183.9 631.6,183.7 627.2,179.1 "
       transform="translate(0,-24)" /><path
       d="m 585.3,164.6 c -4.2,0 -7.6,-3.4 -7.6,-7.6 0,-4.2 3.4,-7.6 7.6,-7.6 4.2,0 7.6,3.4 7.6,7.6 0,4.2 -3.4,7.6 -7.6,7.6 z m 0,-14.2 c -3.6,0 -6.6,3 -6.6,6.6 0,3.6 3,6.6 6.6,6.6 3.6,0 6.6,-3 6.6,-6.6 0,-3.6 -2.9,-6.6 -6.6,-6.6 z"
       id="path17337" /><path
       id="path17339"
       class="st9"
       d="m 585.3,151.3 v 7.4" /><path
       id="path17341"
       class="st9"
       d="m 591.3,158.7 h -12" /><path
       id="path17343"
       class="st9"
       d="m 589.7,160.4 h -8.8" /><path
       id="path17345"
       class="st9"
       d="m 587.3,162 h -4.1" /></g><text
     class="st1 st4"
     id="text17351"
     x="512.71198"
     y="187.63263"><tspan
       style="font-style:normal;font-variant:normal;font-weight:600;font-stretch:normal;font-family:'Work Sans';-inkscape-font-specification:'Work Sans Semi-Bold'"
       id="tspan17349">IP 20</tspan></text><text
     class="st11 st12"
     id="text17355"
     x="475.8255"
     y="146.93512"><tspan
       style="font-style:normal;font-variant:normal;font-weight:bold;font-stretch:normal;font-family:Gilroy;-inkscape-font-specification:'Gilroy Bold'"
       id="tspan17353">made with love and passion</tspan></text><text
     class="st11 st12"
     id="text17359"
     x="502.3064"
     y="155.33513"><tspan
       style="font-style:normal;font-variant:normal;font-weight:bold;font-stretch:normal;font-family:Gilroy;-inkscape-font-specification:'Gilroy Bold'"
       id="tspan17357">in Germany</tspan></text><rect
     style="fill:none;stroke:#000000;stroke-width:0.377953"
     id="rect17361"
     width="49.718445"
     height="49.718445"
     x="496.50464"
     y="56.347599"
     ry="14.144" /><text
     xml:space="preserve"
     style="font-style:normal;font-weight:normal;font-size:17.2411px;line-height:1.25;font-family:sans-serif;fill:#000000;fill-opacity:1;stroke:none;stroke-width:0.431028"
     x="464.28735"
     y="124.40166"
     id="text17367"><tspan
       sodipodi:role="line"
       id="tspan17365"
       x="464.28735"
       y="124.40166"
       style="font-style:normal;font-variant:normal;font-weight:800;font-stretch:normal;font-family:Gilroy;-inkscape-font-specification:'Gilroy Ultra-Bold';stroke-width:0.431028">company <tspan
   style="font-style:normal;font-variant:normal;font-weight:300;font-stretch:normal;font-family:Gilroy;-inkscape-font-specification:'Gilroy Light'"
   id="tspan17363">logo</tspan></tspan></text></g><g
   id="g17448"
   transform="translate(0,941.10236)"><line
     id="line17400"
     class="st5"
     x1="476.96759"
     y1="163.18582"
     x2="565.86761"
     y2="163.18582" /><text
     class="st1 st4"
     id="text17404"
     x="463.07932"
     y="176.52983"><tspan
       style="font-style:normal;font-variant:normal;font-weight:normal;font-stretch:normal;font-family:'Work Sans';-inkscape-font-specification:'Work Sans'"
       id="tspan17402">lorem ipsum | blabla | information</tspan></text><g
     id="g17426"
     transform="translate(-83.406108,43.785826)"><path
       id="path17406"
       class="st6"
       d="m 604.4,163.9 v -2.1 c -1.9,0.3 -3.8,-0.6 -4.9,-2.2 -1,-1.6 -1,-3.7 0,-5.4 1.1,-1.6 3,-2.5 4.9,-2.2 v -2.1 c -2.7,-0.3 -5.3,1 -6.7,3.3 -1.4,2.3 -1.4,5.2 0,7.5 1.4,2.2 4,3.5 6.7,3.2 z" /><path
       id="path17408"
       class="st7"
       d="m 616.4,163.9 c -2.7,0.3 -5.3,-1 -6.7,-3.3 -1.4,-2.3 -1.4,-5.2 0,-7.5 1.4,-2.3 4,-3.6 6.7,-3.3 v 2.1 c -2.6,-0.4 -5,1.3 -5.6,3.8 h 4.1 v 2.1 h -4.1 c 0.6,2.5 3,4.2 5.6,3.8 z" /><polygon
       id="polygon17410"
       class="st6"
       points="631.3,186.2 623,186.2 623,188.2 631.3,188.2 "
       transform="translate(0,-24)" /><path
       id="path17412"
       class="st8"
       d="m 626.6,153.9 h 1.7 v -0.5 h -1.7 z m -0.5,4.6 v 0.4 h -0.5 v -0.4 c -0.1,0 -0.1,-0.1 -0.1,-0.1 l -0.6,-6.6 h -0.4 v -0.3 h 0.3 c 0.1,-0.3 0.3,-0.5 0.6,-0.6 v -0.2 h 0.5 v 0.1 c 0.3,-0.1 0.5,-0.1 0.8,-0.1 v -0.1 h 1.3 v 0.1 c 0.3,0 0.5,0 0.7,0.1 0.2,0.1 0.4,0.2 0.6,0.4 0.1,-0.1 0.2,-0.2 0.3,-0.2 0.2,0 0.4,0.2 0.4,0.4 0,0.2 -0.2,0.4 -0.4,0.4 -0.1,0 -0.1,0 -0.2,0 v 0.5 h 0.6 v 1 h -0.7 l -0.4,4 c 0.4,0.1 0.6,0.4 0.6,0.8 0,0.5 -0.4,0.8 -0.8,0.8 -0.3,0 -0.6,-0.2 -0.7,-0.4 z m 2.7,-0.7 c 0.2,0 0.3,0.1 0.3,0.3 0,0.2 -0.1,0.3 -0.3,0.3 -0.2,0 -0.3,-0.1 -0.3,-0.3 0,-0.1 0.1,-0.3 0.3,-0.3 z m -0.8,0.5 v -0.1 c 0,-0.4 0.3,-0.8 0.7,-0.8 l 0.4,-4 v 0 -1 h 0.1 v -0.5 h -4 l 0.5,6.4 z m 0.8,-0.6 c 0.2,0 0.4,0.2 0.4,0.4 0,0.2 -0.2,0.4 -0.4,0.4 -0.2,0 -0.4,-0.2 -0.4,-0.4 -0.1,-0.2 0.1,-0.4 0.4,-0.4 z m 0.6,-5.1 v 0.5 h 0.4 v -0.5 z m -3.5,-1.4 v 0.4 h 3.3 c -0.1,-0.2 -0.3,-0.3 -0.5,-0.4 -0.2,-0.1 -0.4,-0.1 -0.7,-0.1 v 0.2 h -1.3 V 151 c -0.3,0.1 -0.6,0.1 -0.8,0.2 z m -0.5,0.4 v -0.3 c -0.1,0.1 -0.3,0.2 -0.3,0.3 z m 1.5,-0.5 h 0.9 v -0.2 h -0.9 z" /><polygon
       id="polygon17414"
       class="st6"
       points="631.4,174.5 627,178.9 622.5,174.2 622.3,174.3 626.8,179.1 622.3,183.7 622.5,183.9 627,179.3 631.4,183.9 631.6,183.7 627.2,179.1 631.6,174.7 "
       transform="translate(0,-24)" /><path
       d="m 585.3,164.6 c -4.2,0 -7.6,-3.4 -7.6,-7.6 0,-4.2 3.4,-7.6 7.6,-7.6 4.2,0 7.6,3.4 7.6,7.6 0,4.2 -3.4,7.6 -7.6,7.6 z m 0,-14.2 c -3.6,0 -6.6,3 -6.6,6.6 0,3.6 3,6.6 6.6,6.6 3.6,0 6.6,-3 6.6,-6.6 0,-3.6 -2.9,-6.6 -6.6,-6.6 z"
       id="path17416" /><path
       id="path17418"
       class="st9"
       d="m 585.3,151.3 v 7.4" /><path
       id="path17420"
       class="st9"
       d="m 591.3,158.7 h -12" /><path
       id="path17422"
       class="st9"
       d="m 589.7,160.4 h -8.8" /><path
       id="path17424"
       class="st9"
       d="m 587.3,162 h -4.1" /></g><text
     class="st1 st4"
     id="text17430"
     x="512.71198"
     y="187.63263"><tspan
       style="font-style:normal;font-variant:normal;font-weight:600;font-stretch:normal;font-family:'Work Sans';-inkscape-font-specification:'Work Sans Semi-Bold'"
       id="tspan17428">IP 20</tspan></text><text
     class="st11 st12"
     id="text17434"
     x="475.8255"
     y="146.93512"><tspan
       style="font-style:normal;font-variant:normal;font-weight:bold;font-stretch:normal;font-family:Gilroy;-inkscape-font-specification:'Gilroy Bold'"
       id="tspan17432">made with love and passion</tspan></text><text
     class="st11 st12"
     id="text17438"
     x="502.3064"
     y="155.33513"><tspan
       style="font-style:normal;font-variant:normal;font-weight:bold;font-stretch:normal;font-family:Gilroy;-inkscape-font-specification:'Gilroy Bold'"
       id="tspan17436">in Germany</tspan></text><rect
     style="fill:none;stroke:#000000;stroke-width:0.377953"
     id="rect17440"
     width="49.718445"
     height="49.718445"
     x="496.50464"
     y="56.347599"
     ry="14.144" /><text
     xml:space="preserve"
     style="font-style:normal;font-weight:normal;font-size:17.2411px;line-height:1.25;font-family:sans-serif;fill:#000000;fill-opacity:1;stroke:none;stroke-width:0.431028"
     x="464.28735"
     y="124.40166"
     id="text17446"><tspan
       sodipodi:role="line"
       id="tspan17444"
       x="464.28735"
       y="124.40166"
       style="font-style:normal;font-variant:normal;font-weight:800;font-stretch:normal;font-family:Gilroy;-inkscape-font-specification:'Gilroy Ultra-Bold';stroke-width:0.431028">company <tspan
   style="font-style:normal;font-variant:normal;font-weight:300;font-stretch:normal;font-family:Gilroy;-inkscape-font-specification:'Gilroy Light'"
   id="tspan17442">logo</tspan></tspan></text></g><g
   id="g17498"
   transform="translate(0,1254.8032)"><line
     id="line17450"
     class="st5"
     x1="476.96759"
     y1="163.18582"
     x2="565.86761"
     y2="163.18582" /><text
     class="st1 st4"
     id="text17454"
     x="463.07932"
     y="176.52983"><tspan
       style="font-style:normal;font-variant:normal;font-weight:normal;font-stretch:normal;font-family:'Work Sans';-inkscape-font-specification:'Work Sans'"
       id="tspan17452">lorem ipsum | blabla | information</tspan></text><g
     id="g17476"
     transform="translate(-83.406108,43.785826)"><path
       id="path17456"
       class="st6"
       d="m 604.4,163.9 v -2.1 c -1.9,0.3 -3.8,-0.6 -4.9,-2.2 -1,-1.6 -1,-3.7 0,-5.4 1.1,-1.6 3,-2.5 4.9,-2.2 v -2.1 c -2.7,-0.3 -5.3,1 -6.7,3.3 -1.4,2.3 -1.4,5.2 0,7.5 1.4,2.2 4,3.5 6.7,3.2 z" /><path
       id="path17458"
       class="st7"
       d="m 616.4,163.9 c -2.7,0.3 -5.3,-1 -6.7,-3.3 -1.4,-2.3 -1.4,-5.2 0,-7.5 1.4,-2.3 4,-3.6 6.7,-3.3 v 2.1 c -2.6,-0.4 -5,1.3 -5.6,3.8 h 4.1 v 2.1 h -4.1 c 0.6,2.5 3,4.2 5.6,3.8 z" /><polygon
       id="polygon17460"
       class="st6"
       points="623,186.2 623,188.2 631.3,188.2 631.3,186.2 "
       transform="translate(0,-24)" /><path
       id="path17462"
       class="st8"
       d="m 626.6,153.9 h 1.7 v -0.5 h -1.7 z m -0.5,4.6 v 0.4 h -0.5 v -0.4 c -0.1,0 -0.1,-0.1 -0.1,-0.1 l -0.6,-6.6 h -0.4 v -0.3 h 0.3 c 0.1,-0.3 0.3,-0.5 0.6,-0.6 v -0.2 h 0.5 v 0.1 c 0.3,-0.1 0.5,-0.1 0.8,-0.1 v -0.1 h 1.3 v 0.1 c 0.3,0 0.5,0 0.7,0.1 0.2,0.1 0.4,0.2 0.6,0.4 0.1,-0.1 0.2,-0.2 0.3,-0.2 0.2,0 0.4,0.2 0.4,0.4 0,0.2 -0.2,0.4 -0.4,0.4 -0.1,0 -0.1,0 -0.2,0 v 0.5 h 0.6 v 1 h -0.7 l -0.4,4 c 0.4,0.1 0.6,0.4 0.6,0.8 0,0.5 -0.4,0.8 -0.8,0.8 -0.3,0 -0.6,-0.2 -0.7,-0.4 z m 2.7,-0.7 c 0.2,0 0.3,0.1 0.3,0.3 0,0.2 -0.1,0.3 -0.3,0.3 -0.2,0 -0.3,-0.1 -0.3,-0.3 0,-0.1 0.1,-0.3 0.3,-0.3 z m -0.8,0.5 v -0.1 c 0,-0.4 0.3,-0.8 0.7,-0.8 l 0.4,-4 v 0 -1 h 0.1 v -0.5 h -4 l 0.5,6.4 z m 0.8,-0.6 c 0.2,0 0.4,0.2 0.4,0.4 0,0.2 -0.2,0.4 -0.4,0.4 -0.2,0 -0.4,-0.2 -0.4,-0.4 -0.1,-0.2 0.1,-0.4 0.4,-0.4 z m 0.6,-5.1 v 0.5 h 0.4 v -0.5 z m -3.5,-1.4 v 0.4 h 3.3 c -0.1,-0.2 -0.3,-0.3 -0.5,-0.4 -0.2,-0.1 -0.4,-0.1 -0.7,-0.1 v 0.2 h -1.3 V 151 c -0.3,0.1 -0.6,0.1 -0.8,0.2 z m -0.5,0.4 v -0.3 c -0.1,0.1 -0.3,0.2 -0.3,0.3 z m 1.5,-0.5 h 0.9 v -0.2 h -0.9 z" /><polygon
       id="polygon17464"
       class="st6"
       points="627,178.9 622.5,174.2 622.3,174.3 626.8,179.1 622.3,183.7 622.5,183.9 627,179.3 631.4,183.9 631.6,183.7 627.2,179.1 631.6,174.7 631.4,174.5 "
       transform="translate(0,-24)" /><path
       d="m 585.3,164.6 c -4.2,0 -7.6,-3.4 -7.6,-7.6 0,-4.2 3.4,-7.6 7.6,-7.6 4.2,0 7.6,3.4 7.6,7.6 0,4.2 -3.4,7.6 -7.6,7.6 z m 0,-14.2 c -3.6,0 -6.6,3 -6.6,6.6 0,3.6 3,6.6 6.6,6.6 3.6,0 6.6,-3 6.6,-6.6 0,-3.6 -2.9,-6.6 -6.6,-6.6 z"
       id="path17466" /><path
       id="path17468"
       class="st9"
       d="m 585.3,151.3 v 7.4" /><path
       id="path17470"
       class="st9"
       d="m 591.3,158.7 h -12" /><path
       id="path17472"
       class="st9"
       d="m 589.7,160.4 h -8.8" /><path
       id="path17474"
       class="st9"
       d="m 587.3,162 h -4.1" /></g><text
     class="st1 st4"
     id="text17480"
     x="512.71198"
     y="187.63263"><tspan
       style="font-style:normal;font-variant:normal;font-weight:600;font-stretch:normal;font-family:'Work Sans';-inkscape-font-specification:'Work Sans Semi-Bold'"
       id="tspan17478">IP 20</tspan></text><text
     class="st11 st12"
     id="text17484"
     x="475.8255"
     y="146.93512"><tspan
       style="font-style:normal;font-variant:normal;font-weight:bold;font-stretch:normal;font-family:Gilroy;-inkscape-font-specification:'Gilroy Bold'"
       id="tspan17482">made with love and passion</tspan></text><text
     class="st11 st12"
     id="text17488"
     x="502.3064"
     y="155.33513"><tspan
       style="font-style:normal;font-variant:normal;font-weight:bold;font-stretch:normal;font-family:Gilroy;-inkscape-font-specification:'Gilroy Bold'"
       id="tspan17486">in Germany</tspan></text><rect
     style="fill:none;stroke:#000000;stroke-width:0.377953"
     id="rect17490"
     width="49.718445"
     height="49.718445"
     x="496.50464"
     y="56.347599"
     ry="14.144" /><text
     xml:space="preserve"
     style="font-style:normal;font-weight:normal;font-size:17.2411px;line-height:1.25;font-family:sans-serif;fill:#000000;fill-opacity:1;stroke:none;stroke-width:0.431028"
     x="464.28735"
     y="124.40166"
     id="text17496"><tspan
       sodipodi:role="line"
       id="tspan17494"
       x="464.28735"
       y="124.40166"
       style="font-style:normal;font-variant:normal;font-weight:800;font-stretch:normal;font-family:Gilroy;-inkscape-font-specification:'Gilroy Ultra-Bold';stroke-width:0.431028">company <tspan
   style="font-style:normal;font-variant:normal;font-weight:300;font-stretch:normal;font-family:Gilroy;-inkscape-font-specification:'Gilroy Light'"
   id="tspan17492">logo</tspan></tspan></text></g><g
   id="g17548"
   transform="translate(0,1568.504)"><line
     id="line17500"
     class="st5"
     x1="476.96759"
     y1="163.18582"
     x2="565.86761"
     y2="163.18582" /><text
     class="st1 st4"
     id="text17504"
     x="463.07932"
     y="176.52983"><tspan
       style="font-style:normal;font-variant:normal;font-weight:normal;font-stretch:normal;font-family:'Work Sans';-inkscape-font-specification:'Work Sans'"
       id="tspan17502">lorem ipsum | blabla | information</tspan></text><g
     id="g17526"
     transform="translate(-83.406108,43.785826)"><path
       id="path17506"
       class="st6"
       d="m 604.4,163.9 v -2.1 c -1.9,0.3 -3.8,-0.6 -4.9,-2.2 -1,-1.6 -1,-3.7 0,-5.4 1.1,-1.6 3,-2.5 4.9,-2.2 v -2.1 c -2.7,-0.3 -5.3,1 -6.7,3.3 -1.4,2.3 -1.4,5.2 0,7.5 1.4,2.2 4,3.5 6.7,3.2 z" /><path
       id="path17508"
       class="st7"
       d="m 616.4,163.9 c -2.7,0.3 -5.3,-1 -6.7,-3.3 -1.4,-2.3 -1.4,-5.2 0,-7.5 1.4,-2.3 4,-3.6 6.7,-3.3 v 2.1 c -2.6,-0.4 -5,1.3 -5.6,3.8 h 4.1 v 2.1 h -4.1 c 0.6,2.5 3,4.2 5.6,3.8 z" /><polygon
       id="polygon17510"
       class="st6"
       points="623,188.2 631.3,188.2 631.3,186.2 623,186.2 "
       transform="translate(0,-24)" /><path
       id="path17512"
       class="st8"
       d="m 626.6,153.9 h 1.7 v -0.5 h -1.7 z m -0.5,4.6 v 0.4 h -0.5 v -0.4 c -0.1,0 -0.1,-0.1 -0.1,-0.1 l -0.6,-6.6 h -0.4 v -0.3 h 0.3 c 0.1,-0.3 0.3,-0.5 0.6,-0.6 v -0.2 h 0.5 v 0.1 c 0.3,-0.1 0.5,-0.1 0.8,-0.1 v -0.1 h 1.3 v 0.1 c 0.3,0 0.5,0 0.7,0.1 0.2,0.1 0.4,0.2 0.6,0.4 0.1,-0.1 0.2,-0.2 0.3,-0.2 0.2,0 0.4,0.2 0.4,0.4 0,0.2 -0.2,0.4 -0.4,0.4 -0.1,0 -0.1,0 -0.2,0 v 0.5 h 0.6 v 1 h -0.7 l -0.4,4 c 0.4,0.1 0.6,0.4 0.6,0.8 0,0.5 -0.4,0.8 -0.8,0.8 -0.3,0 -0.6,-0.2 -0.7,-0.4 z m 2.7,-0.7 c 0.2,0 0.3,0.1 0.3,0.3 0,0.2 -0.1,0.3 -0.3,0.3 -0.2,0 -0.3,-0.1 -0.3,-0.3 0,-0.1 0.1,-0.3 0.3,-0.3 z m -0.8,0.5 v -0.1 c 0,-0.4 0.3,-0.8 0.7,-0.8 l 0.4,-4 v 0 -1 h 0.1 v -0.5 h -4 l 0.5,6.4 z m 0.8,-0.6 c 0.2,0 0.4,0.2 0.4,0.4 0,0.2 -0.2,0.4 -0.4,0.4 -0.2,0 -0.4,-0.2 -0.4,-0.4 -0.1,-0.2 0.1,-0.4 0.4,-0.4 z m 0.6,-5.1 v 0.5 h 0.4 v -0.5 z m -3.5,-1.4 v 0.4 h 3.3 c -0.1,-0.2 -0.3,-0.3 -0.5,-0.4 -0.2,-0.1 -0.4,-0.1 -0.7,-0.1 v 0.2 h -1.3 V 151 c -0.3,0.1 -0.6,0.1 -0.8,0.2 z m -0.5,0.4 v -0.3 c -0.1,0.1 -0.3,0.2 -0.3,0.3 z m 1.5,-0.5 h 0.9 v -0.2 h -0.9 z" /><polygon
       id="polygon17514"
       class="st6"
       points="622.5,174.2 622.3,174.3 626.8,179.1 622.3,183.7 622.5,183.9 627,179.3 631.4,183.9 631.6,183.7 627.2,179.1 631.6,174.7 631.4,174.5 627,178.9 "
       transform="translate(0,-24)" /><path
       d="m 585.3,164.6 c -4.2,0 -7.6,-3.4 -7.6,-7.6 0,-4.2 3.4,-7.6 7.6,-7.6 4.2,0 7.6,3.4 7.6,7.6 0,4.2 -3.4,7.6 -7.6,7.6 z m 0,-14.2 c -3.6,0 -6.6,3 -6.6,6.6 0,3.6 3,6.6 6.6,6.6 3.6,0 6.6,-3 6.6,-6.6 0,-3.6 -2.9,-6.6 -6.6,-6.6 z"
       id="path17516" /><path
       id="path17518"
       class="st9"
       d="m 585.3,151.3 v 7.4" /><path
       id="path17520"
       class="st9"
       d="m 591.3,158.7 h -12" /><path
       id="path17522"
       class="st9"
       d="m 589.7,160.4 h -8.8" /><path
       id="path17524"
       class="st9"
       d="m 587.3,162 h -4.1" /></g><text
     class="st1 st4"
     id="text17530"
     x="512.71198"
     y="187.63263"><tspan
       style="font-style:normal;font-variant:normal;font-weight:600;font-stretch:normal;font-family:'Work Sans';-inkscape-font-specification:'Work Sans Semi-Bold'"
       id="tspan17528">IP 20</tspan></text><text
     class="st11 st12"
     id="text17534"
     x="475.8255"
     y="146.93512"><tspan
       style="font-style:normal;font-variant:normal;font-weight:bold;font-stretch:normal;font-family:Gilroy;-inkscape-font-specification:'Gilroy Bold'"
       id="tspan17532">made with love and passion</tspan></text><text
     class="st11 st12"
     id="text17538"
     x="502.3064"
     y="155.33513"><tspan
       style="font-style:normal;font-variant:normal;font-weight:bold;font-stretch:normal;font-family:Gilroy;-inkscape-font-specification:'Gilroy Bold'"
       id="tspan17536">in Germany</tspan></text><rect
     style="fill:none;stroke:#000000;stroke-width:0.377953"
     id="rect17540"
     width="49.718445"
     height="49.718445"
     x="496.50464"
     y="56.347599"
     ry="14.144" /><text
     xml:space="preserve"
     style="font-style:normal;font-weight:normal;font-size:17.2411px;line-height:1.25;font-family:sans-serif;fill:#000000;fill-opacity:1;stroke:none;stroke-width:0.431028"
     x="464.28735"
     y="124.40166"
     id="text17546"><tspan
       sodipodi:role="line"
       id="tspan17544"
       x="464.28735"
       y="124.40166"
       style="font-style:normal;font-variant:normal;font-weight:800;font-stretch:normal;font-family:Gilroy;-inkscape-font-specification:'Gilroy Ultra-Bold';stroke-width:0.431028">company <tspan
   style="font-style:normal;font-variant:normal;font-weight:300;font-stretch:normal;font-family:Gilroy;-inkscape-font-specification:'Gilroy Light'"
   id="tspan17542">logo</tspan></tspan></text></g><g
   id="g17598"
   transform="translate(0,1882.2047)"><line
     id="line17550"
     class="st5"
     x1="476.96759"
     y1="163.18582"
     x2="565.86761"
     y2="163.18582" /><text
     class="st1 st4"
     id="text17554"
     x="463.07932"
     y="176.52983"><tspan
       style="font-style:normal;font-variant:normal;font-weight:normal;font-stretch:normal;font-family:'Work Sans';-inkscape-font-specification:'Work Sans'"
       id="tspan17552">lorem ipsum | blabla | information</tspan></text><g
     id="g17576"
     transform="translate(-83.406108,43.785826)"><path
       id="path17556"
       class="st6"
       d="m 604.4,163.9 v -2.1 c -1.9,0.3 -3.8,-0.6 -4.9,-2.2 -1,-1.6 -1,-3.7 0,-5.4 1.1,-1.6 3,-2.5 4.9,-2.2 v -2.1 c -2.7,-0.3 -5.3,1 -6.7,3.3 -1.4,2.3 -1.4,5.2 0,7.5 1.4,2.2 4,3.5 6.7,3.2 z" /><path
       id="path17558"
       class="st7"
       d="m 616.4,163.9 c -2.7,0.3 -5.3,-1 -6.7,-3.3 -1.4,-2.3 -1.4,-5.2 0,-7.5 1.4,-2.3 4,-3.6 6.7,-3.3 v 2.1 c -2.6,-0.4 -5,1.3 -5.6,3.8 h 4.1 v 2.1 h -4.1 c 0.6,2.5 3,4.2 5.6,3.8 z" /><polygon
       id="polygon17560"
       class="st6"
       points="631.3,188.2 631.3,186.2 623,186.2 623,188.2 "
       transform="translate(0,-24)" /><path
       id="path17562"
       class="st8"
       d="m 626.6,153.9 h 1.7 v -0.5 h -1.7 z m -0.5,4.6 v 0.4 h -0.5 v -0.4 c -0.1,0 -0.1,-0.1 -0.1,-0.1 l -0.6,-6.6 h -0.4 v -0.3 h 0.3 c 0.1,-0.3 0.3,-0.5 0.6,-0.6 v -0.2 h 0.5 v 0.1 c 0.3,-0.1 0.5,-0.1 0.8,-0.1 v -0.1 h 1.3 v 0.1 c 0.3,0 0.5,0 0.7,0.1 0.2,0.1 0.4,0.2 0.6,0.4 0.1,-0.1 0.2,-0.2 0.3,-0.2 0.2,0 0.4,0.2 0.4,0.4 0,0.2 -0.2,0.4 -0.4,0.4 -0.1,0 -0.1,0 -0.2,0 v 0.5 h 0.6 v 1 h -0.7 l -0.4,4 c 0.4,0.1 0.6,0.4 0.6,0.8 0,0.5 -0.4,0.8 -0.8,0.8 -0.3,0 -0.6,-0.2 -0.7,-0.4 z m 2.7,-0.7 c 0.2,0 0.3,0.1 0.3,0.3 0,0.2 -0.1,0.3 -0.3,0.3 -0.2,0 -0.3,-0.1 -0.3,-0.3 0,-0.1 0.1,-0.3 0.3,-0.3 z m -0.8,0.5 v -0.1 c 0,-0.4 0.3,-0.8 0.7,-0.8 l 0.4,-4 v 0 -1 h 0.1 v -0.5 h -4 l 0.5,6.4 z m 0.8,-0.6 c 0.2,0 0.4,0.2 0.4,0.4 0,0.2 -0.2,0.4 -0.4,0.4 -0.2,0 -0.4,-0.2 -0.4,-0.4 -0.1,-0.2 0.1,-0.4 0.4,-0.4 z m 0.6,-5.1 v 0.5 h 0.4 v -0.5 z m -3.5,-1.4 v 0.4 h 3.3 c -0.1,-0.2 -0.3,-0.3 -0.5,-0.4 -0.2,-0.1 -0.4,-0.1 -0.7,-0.1 v 0.2 h -1.3 V 151 c -0.3,0.1 -0.6,0.1 -0.8,0.2 z m -0.5,0.4 v -0.3 c -0.1,0.1 -0.3,0.2 -0.3,0.3 z m 1.5,-0.5 h 0.9 v -0.2 h -0.9 z" /><polygon
       id="polygon17564"
       class="st6"
       points="622.3,174.3 626.8,179.1 622.3,183.7 622.5,183.9 627,179.3 631.4,183.9 631.6,183.7 627.2,179.1 631.6,174.7 631.4,174.5 627,178.9 622.5,174.2 "
       transform="translate(0,-24)" /><path
       d="m 585.3,164.6 c -4.2,0 -7.6,-3.4 -7.6,-7.6 0,-4.2 3.4,-7.6 7.6,-7.6 4.2,0 7.6,3.4 7.6,7.6 0,4.2 -3.4,7.6 -7.6,7.6 z m 0,-14.2 c -3.6,0 -6.6,3 -6.6,6.6 0,3.6 3,6.6 6.6,6.6 3.6,0 6.6,-3 6.6,-6.6 0,-3.6 -2.9,-6.6 -6.6,-6.6 z"
       id="path17566" /><path
       id="path17568"
       class="st9"
       d="m 585.3,151.3 v 7.4" /><path
       id="path17570"
       class="st9"
       d="m 591.3,158.7 h -12" /><path
       id="path17572"
       class="st9"
       d="m 589.7,160.4 h -8.8" /><path
       id="path17574"
       class="st9"
       d="m 587.3,162 h -4.1" /></g><text
     class="st1 st4"
     id="text17580"
     x="512.71198"
     y="187.63263"><tspan
       style="font-style:normal;font-variant:normal;font-weight:600;font-stretch:normal;font-family:'Work Sans';-inkscape-font-specification:'Work Sans Semi-Bold'"
       id="tspan17578">IP 20</tspan></text><text
     class="st11 st12"
     id="text17584"
     x="475.8255"
     y="146.93512"><tspan
       style="font-style:normal;font-variant:normal;font-weight:bold;font-stretch:normal;font-family:Gilroy;-inkscape-font-specification:'Gilroy Bold'"
       id="tspan17582">made with love and passion</tspan></text><text
     class="st11 st12"
     id="text17588"
     x="502.3064"
     y="155.33513"><tspan
       style="font-style:normal;font-variant:normal;font-weight:bold;font-stretch:normal;font-family:Gilroy;-inkscape-font-specification:'Gilroy Bold'"
       id="tspan17586">in Germany</tspan></text><rect
     style="fill:none;stroke:#000000;stroke-width:0.377953"
     id="rect17590"
     width="49.718445"
     height="49.718445"
     x="496.50464"
     y="56.347599"
     ry="14.144" /><text
     xml:space="preserve"
     style="font-style:normal;font-weight:normal;font-size:17.2411px;line-height:1.25;font-family:sans-serif;fill:#000000;fill-opacity:1;stroke:none;stroke-width:0.431028"
     x="464.28735"
     y="124.40166"
     id="text17596"><tspan
       sodipodi:role="line"
       id="tspan17594"
       x="464.28735"
       y="124.40166"
       style="font-style:normal;font-variant:normal;font-weight:800;font-stretch:normal;font-family:Gilroy;-inkscape-font-specification:'Gilroy Ultra-Bold';stroke-width:0.431028">company <tspan
   style="font-style:normal;font-variant:normal;font-weight:300;font-stretch:normal;font-family:Gilroy;-inkscape-font-specification:'Gilroy Light'"
   id="tspan17592">logo</tspan></tspan></text></g></svg>
